<svg width="34" height="34" viewBox="0 0 34 34" fill="none" xmlns="http://www.w3.org/2000/svg">
<path d="M10.0511 12.3848C9.77098 12.2428 9.4414 12.3812 9.31451 12.6921L6.71314 19.0555C6.58625 19.3661 6.71015 19.7322 6.99001 19.8731C7.26329 20.0132 7.59939 19.8797 7.72662 19.5657L10.328 13.2024C10.4549 12.8918 10.331 12.5257 10.0511 12.3848Z" fill="#7A3DE2"/>
<path d="M11.8812 15.3041C9.34418 14.2531 8.50737 18.6508 11.1933 18.8443C12.9642 18.8502 13.4991 16.1085 11.8812 15.3041ZM11.3873 17.5695C10.6982 17.8429 10.3156 16.7107 10.9955 16.4133C11.6835 16.1392 12.0675 17.2705 11.3873 17.5695Z" fill="#7A3DE2"/>
<path d="M7.37007 16.0253C8.00591 14.5872 6.60336 12.9118 5.26263 13.5253C4.40107 13.8847 3.96334 14.955 4.28722 15.9113C4.76489 17.4358 6.80243 17.5102 7.37007 16.0253ZM6.35658 15.5148C6.05403 16.2491 5.04442 15.7406 5.34313 15.0044C5.64415 14.2721 6.65431 14.7754 6.35658 15.5148Z" fill="#7A3DE2"/>
<path d="M15.2293 16.6277L13.2719 10.8461C12.8402 9.57105 11.5547 8.92416 10.4054 9.40217L3.11287 12.4439C1.98428 12.8848 1.36787 14.3921 1.81195 15.6253C1.81192 15.6253 3.76933 21.4068 3.76933 21.4068C4.20136 22.6819 5.48709 23.3294 6.6359 22.8508L8.91855 21.8987L10.4912 23.5173C10.646 23.677 10.8697 23.7244 11.0651 23.6425C11.2626 23.5601 11.4009 23.3614 11.4229 23.1286L11.646 20.7612L13.9284 19.8091C15.0572 19.3682 15.6733 17.8608 15.2293 16.6277ZM14.1591 18.0068C14.0362 18.3075 13.8153 18.5367 13.5371 18.6528L10.9327 19.7391C10.7352 19.8214 10.5969 20.0202 10.5749 20.253L10.4317 21.7718L9.42284 20.7334C9.26824 20.5745 9.04543 20.5256 8.84898 20.6083L6.24462 21.6946C5.66995 21.9334 5.02735 21.6101 4.81107 20.9726L2.85366 15.191C2.63204 14.5744 2.93982 13.8207 3.50417 13.6002C3.50414 13.6002 10.7966 10.5584 10.7966 10.5584C11.3718 10.3208 12.0142 10.6429 12.2302 11.2804L14.1876 17.062C14.2922 17.3708 14.2819 17.7065 14.1591 18.0068Z" fill="#7A3DE2"/>
<path d="M2.78233 25.3025H11.4687C11.776 25.3025 12.0252 25.0259 12.0252 24.6848C12.0252 24.3437 11.776 24.0672 11.4687 24.0672H2.78233C1.86177 24.0672 1.11293 23.236 1.11293 22.2143V8.62631H27.8233V10.1951C27.8349 11.0049 28.924 11.0084 28.9362 10.1951C28.9362 10.1951 28.9362 4.9205 28.9362 4.9205C28.9362 3.21778 27.688 1.83232 26.1539 1.83232H21.7022C21.6442 -0.611642 18.4207 -0.609906 18.3634 1.83232H16.1375C16.0796 -0.611642 12.856 -0.609906 12.7987 1.83232H10.5729C10.5149 -0.611642 7.29133 -0.609906 7.23406 1.83232H2.78233C1.24824 1.83232 0 3.21778 0 4.9205V22.2143C0 23.917 1.24824 25.3025 2.78233 25.3025ZM20.0328 1.21469C20.3396 1.21469 20.5893 1.49184 20.5893 1.83232H19.4763C19.4763 1.49184 19.726 1.21469 20.0328 1.21469ZM14.4681 1.21469C14.7749 1.21469 15.0246 1.49184 15.0246 1.83232H13.9117C13.9117 1.49184 14.1614 1.21469 14.4681 1.21469ZM8.90346 1.21469C9.21022 1.21469 9.45993 1.49184 9.45993 1.83232H8.34699C8.34699 1.49184 8.5967 1.21469 8.90346 1.21469ZM1.11293 4.9205C1.11293 3.89875 1.86177 3.06759 2.78233 3.06759H9.45993V4.30287C9.45993 4.64335 9.21022 4.9205 8.90346 4.9205C8.5967 4.9205 8.34699 4.64335 8.34699 4.30287C8.34699 3.96178 8.09784 3.68523 7.79053 3.68523C7.48322 3.68523 7.23406 3.96178 7.23406 4.30287C7.23406 5.32462 7.9829 6.15577 8.90346 6.15577C9.82402 6.15577 10.5729 5.32462 10.5729 4.30287V3.06759H15.0246V4.30287C15.0246 4.64335 14.7749 4.9205 14.4681 4.9205C14.1614 4.9205 13.9117 4.64335 13.9117 4.30287C13.9117 3.96178 13.6625 3.68523 13.3552 3.68523C13.0479 3.68523 12.7987 3.96178 12.7987 4.30287C12.7987 5.32462 13.5476 6.15577 14.4681 6.15577C15.3887 6.15577 16.1375 5.32462 16.1375 4.30287V3.06759H20.5893V4.30287C20.5893 4.64335 20.3396 4.9205 20.0328 4.9205C19.726 4.9205 19.4763 4.64335 19.4763 4.30287C19.4763 3.96178 19.2272 3.68523 18.9199 3.68523C18.6125 3.68523 18.3634 3.96178 18.3634 4.30287C18.3634 5.32462 19.1122 6.15577 20.0328 6.15577C20.9533 6.15577 21.7022 5.32462 21.7022 4.30287V3.06759H26.1539C27.0745 3.06759 27.8233 3.89875 27.8233 4.9205V7.39104H1.11293V4.9205Z" fill="#7A3DE2"/>
<path d="M15.1145 13.5596C14.6195 14.1542 15.4241 14.9906 15.9253 14.4058C21.7214 7.50191 32.2922 12.1611 32.2749 21.5984C31.7555 35.5274 13.873 35.524 13.3551 21.5982C13.3456 20.7869 12.2526 20.7871 12.2422 21.5982C12.2422 28.0689 16.9852 33.3333 22.815 33.3333C36.8405 32.689 36.8383 10.506 22.815 9.86316C19.9104 9.86316 17.1037 11.2106 15.1145 13.5596Z" fill="#7A3DE2"/>
<path d="M18.5952 23.4277C18.3626 23.4717 18.1805 23.6738 18.1408 23.9319L17.8148 26.0406C17.7411 26.4458 18.0933 26.8349 18.4572 26.7537C18.4571 26.7538 20.3569 26.3922 20.3569 26.3922C20.5895 26.3479 20.7716 26.1458 20.8115 25.8877L21.1073 23.9726L21.8721 23.1237C24.0004 24.5771 25.679 20.9026 23.3713 19.8577V18.4927L24.3821 16.9063C24.5182 16.6928 24.5182 16.4069 24.3821 16.1934L23.2691 14.4463C23.0605 14.1188 22.5692 14.1188 22.3605 14.4463L21.2476 16.1934C21.1115 16.4069 21.1115 16.6928 21.2476 16.9063L22.2584 18.4927V19.8577C21.4642 20.151 20.9462 21.1815 21.217 22.104L20.3207 23.099L18.5952 23.4277ZM19.7809 25.2483L19.0446 25.3885L19.1712 24.5713L19.9075 24.4307L19.7809 25.2483ZM22.8148 15.8725L23.2463 16.5498L22.8148 17.2269L22.3834 16.5498L22.8148 15.8725ZM22.8148 20.9791C23.8506 21.0882 23.2496 22.7703 22.4302 22.0397C22.4035 21.8805 22.2497 21.7675 22.2584 21.5968C22.2584 21.2563 22.5081 20.9791 22.8148 20.9791Z" fill="#7A3DE2"/>
<path d="M23.3714 12.9512C24.1025 12.9375 24.103 11.7297 23.3714 11.7159H22.2585C21.5274 11.7296 21.5269 12.9375 22.2585 12.9512H23.3714Z" fill="#7A3DE2"/>
<path d="M23.3714 30.246H22.2585C21.5274 30.2597 21.5269 31.4675 22.2585 31.4813H23.3714C24.1025 31.4676 24.103 30.2598 23.3714 30.246Z" fill="#7A3DE2"/>
<path d="M31.7186 22.2161V20.9808C31.7063 20.1692 30.6181 20.1689 30.6057 20.9808V22.2161C30.6181 23.0275 31.7063 23.0281 31.7186 22.2161Z" fill="#7A3DE2"/>
<path d="M13.9119 20.9808V22.2161C13.9243 23.0277 15.0124 23.028 15.0248 22.216V20.9808C15.0125 20.1693 13.9243 20.1688 13.9119 20.9808Z" fill="#7A3DE2"/>
</svg>
