<svg width="34" height="34" viewBox="0 0 34 34" fill="none" xmlns="http://www.w3.org/2000/svg">
<path d="M33.3834 0.0499878H0.0500488V33.3833H33.3834V0.0499878Z" fill="white" stroke="white" strokeWidth="0.1" strokeMiterlimit="10"/>
<path d="M16.7168 0.0499878V33.3833" stroke="white" strokeWidth="0.1" strokeMiterlimit="10"/>
<path d="M33.3834 16.7167H0.0500488" stroke="white" strokeWidth="0.1" strokeMiterlimit="10"/>
<path d="M0.0500488 0.0499878L33.3834 33.3833" stroke="white" strokeWidth="0.1" strokeMiterlimit="10"/>
<path d="M28.9391 4.49518H4.49463V28.9396H28.9391V4.49518Z" stroke="white" strokeWidth="0.1" strokeMiterlimit="10"/>
<path d="M33.3834 0.0499878L0.0500488 33.3833" stroke="white" strokeWidth="0.1" strokeMiterlimit="10"/>
<path d="M0.0500488 16.7167L16.7167 0.0499878" stroke="white" strokeWidth="0.1" strokeMiterlimit="10"/>
<path d="M16.7168 0.0499878L33.3835 16.7167" stroke="white" strokeWidth="0.1" strokeMiterlimit="10"/>
<path d="M33.3835 16.7167L16.7168 33.3833" stroke="white" strokeWidth="0.1" strokeMiterlimit="10"/>
<path d="M16.7167 33.3833L0.0500488 16.7167" stroke="white" strokeWidth="0.1" strokeMiterlimit="10"/>
<path d="M16.7167 28.3819C23.16 28.3819 28.3834 23.1585 28.3834 16.7152C28.3834 10.2719 23.16 5.04852 16.7167 5.04852C10.2734 5.04852 5.05005 10.2719 5.05005 16.7152C5.05005 23.1585 10.2734 28.3819 16.7167 28.3819Z" stroke="white" strokeWidth="0.1" strokeMiterlimit="10"/>
<path d="M17.8279 13.3819C15.0501 13.3819 12.8279 15.6041 12.8279 18.3819C12.8279 21.1597 15.0501 23.3819 17.8279 23.3819C20.6057 23.3819 22.8279 21.1597 22.8279 18.3819C22.8279 15.6041 20.6057 13.3819 17.8279 13.3819ZM17.8279 22.2708C15.6612 22.2708 13.939 20.5486 13.939 18.3819C13.939 16.2152 15.6612 14.493 17.8279 14.493C19.9945 14.493 21.7168 16.2152 21.7168 18.3819C21.7168 20.5486 19.9945 22.2708 17.8279 22.2708Z" fill="#7A3DE2"/>
<path d="M23.9389 11.939L26.7167 9.16121L29.4389 11.939L30.2722 11.1057L27.4945 8.38344L30.2722 5.66121L29.4389 4.82788L26.7167 7.60566L23.9945 4.82788L23.1611 5.60566L25.9389 8.38344L23.1611 11.1057L23.9389 11.939Z" fill="#7A3DE2"/>
<path d="M31.1612 26.1625C31.1612 26.4959 30.9389 26.7181 30.6056 26.7181H3.93894C3.6056 26.7181 3.38338 26.4959 3.38338 26.1625V10.607C3.38338 10.2736 3.6056 10.0514 3.93894 10.0514H19.1056C19.05 9.66253 18.9945 9.3292 18.9389 8.94031H3.93894C2.99449 8.94031 2.27227 9.66253 2.27227 10.607V12.2736H1.71672C0.772271 12.2736 0.0500488 12.9959 0.0500488 13.9403V29.4959C0.0500488 30.4403 0.772271 31.1625 1.71672 31.1625H28.3834C29.3278 31.1625 30.0501 30.4403 30.0501 29.4959V27.8292H30.6056C31.5501 27.8292 32.2723 27.107 32.2723 26.1625V13.8292C31.9389 14.1625 31.5501 14.4959 31.1612 14.7736V26.1625ZM28.9389 29.4959C28.9389 29.8292 28.7167 30.0514 28.3834 30.0514H1.71672C1.38338 30.0514 1.16116 29.8292 1.16116 29.4959V13.9403C1.16116 13.607 1.38338 13.3848 1.71672 13.3848H2.27227V26.1625C2.27227 27.107 2.99449 27.8292 3.93894 27.8292H28.9389V29.4959Z" fill="#7A3DE2"/>
<path d="M8.38352 11.7745C8.38352 13.6079 6.88352 15.1079 5.05018 15.1079H4.49463V21.7745H5.05018C6.88352 21.7745 8.38352 23.2745 8.38352 25.1079V25.6634H26.7169V25.1079C26.7169 23.2745 28.2169 21.7745 30.0502 21.7745H30.6057V15.1079C29.9946 15.4968 29.328 15.719 28.6057 15.9412C28.8835 16.0523 29.1613 16.1079 29.4946 16.1634V20.6634C27.4946 20.9412 25.8835 22.4968 25.6613 24.4968H9.43907C9.1613 22.4968 7.60574 20.8857 5.60574 20.6634V16.1634C7.60574 15.8857 9.21685 14.3301 9.43907 12.3301H19.9946C19.7724 11.9968 19.6057 11.6079 19.4391 11.219H8.38352V11.7745Z" fill="#7A3DE2"/>
<path d="M26.7167 15.0507C30.3834 15.0507 33.3834 12.0507 33.3834 8.38407C33.3834 4.71741 30.3834 1.71741 26.7167 1.71741C23.05 1.71741 20.05 4.71741 20.05 8.38407C20.05 12.0507 23.05 15.0507 26.7167 15.0507ZM26.7167 2.82852C29.7723 2.82852 32.2723 5.32852 32.2723 8.38407C32.2723 11.4396 29.7723 13.9396 26.7167 13.9396C23.6612 13.9396 21.1612 11.4396 21.1612 8.38407C21.1612 5.32852 23.6612 2.82852 26.7167 2.82852Z" fill="#7A3DE2"/>
</svg>
