<svg width="34" height="34" viewBox="0 0 34 34" fill="none" xmlns="http://www.w3.org/2000/svg">
<path fill-rule="evenodd" clip-rule="evenodd" d="M28.1442 32.9625C25.4876 32.9625 23.3259 30.8006 23.3259 28.1439C23.3259 25.4871 25.4877 23.3252 28.1442 23.3252C30.8008 23.3252 32.9612 25.4871 32.9612 28.1439C32.9612 30.8006 30.7994 32.9625 28.1442 32.9625ZM28.1442 24.1077C25.9187 24.1077 24.1074 25.918 24.1074 28.1449C24.1074 30.3706 25.9175 32.182 28.1442 32.182C30.3698 32.182 32.1798 30.3718 32.1798 28.1449C32.1798 25.9191 30.3696 24.1077 28.1442 24.1077Z" fill="#7A3DE2"/>
<path fill-rule="evenodd" clip-rule="evenodd" d="M26.8833 30.4771C26.8025 30.4771 26.7218 30.4523 26.6541 30.4028C26.533 30.3143 26.4731 30.1658 26.4991 30.0186L26.7127 28.8166L25.8337 27.97C25.7256 27.8658 25.6865 27.7095 25.7334 27.5676C25.779 27.4256 25.9027 27.3228 26.0512 27.3019L27.2596 27.1339L27.7936 26.036C27.8587 25.9019 27.9954 25.8159 28.1452 25.8159C28.295 25.8159 28.4317 25.9019 28.4968 26.036L29.0307 27.1339L30.2392 27.3019C30.3877 27.3228 30.5101 27.4256 30.557 27.5676C30.6039 27.7096 30.5648 27.8658 30.4567 27.97L29.5777 28.8166L29.7913 30.0186C29.8173 30.1658 29.7574 30.3156 29.6363 30.4028C29.5152 30.4914 29.355 30.5018 29.2235 30.4315L28.1465 29.8571L27.0695 30.4315C27.0122 30.4627 26.9484 30.4771 26.8859 30.4771H26.8833ZM28.1439 29.0236C28.2077 29.0236 28.2702 29.0392 28.3275 29.0692L28.8796 29.3635L28.7702 28.7475C28.7481 28.6199 28.7898 28.4883 28.8835 28.3985L29.3341 27.9648L28.7142 27.8788C28.5853 27.8606 28.4733 27.7798 28.4173 27.6626L28.1438 27.1L27.8704 27.6626C27.8131 27.7798 27.7024 27.8606 27.5735 27.8788L26.9536 27.9648L27.4042 28.3985C27.4979 28.4883 27.5409 28.6199 27.5175 28.7475L27.4081 29.3635L27.9602 29.0692C28.0175 29.0379 28.08 29.0236 28.1439 29.0236Z" fill="#7A3DE2"/>
<path fill-rule="evenodd" clip-rule="evenodd" d="M16.6659 33.3332C13.8049 33.3332 10.9829 32.5948 8.50353 31.2C8.40456 31.144 8.33424 31.0476 8.3121 30.9369C8.28996 30.8262 8.31731 30.7103 8.38633 30.6204C8.7158 30.1959 8.9528 29.7153 9.09345 29.1917C9.67036 27.0376 8.38763 24.8158 6.23501 24.239C5.02522 23.916 3.70081 24.1843 2.71388 24.9475C2.62403 25.0165 2.50943 25.0439 2.39743 25.0204C2.28674 24.9983 2.19038 24.928 2.13438 24.829C0.738364 22.3493 0 19.5259 0 16.6659C0 13.806 0.737063 10.9824 2.13308 8.5029C2.18908 8.40392 2.28414 8.33359 2.39613 8.31145C2.50813 8.28931 2.62273 8.31666 2.71258 8.38569C3.1371 8.71388 3.61763 8.95221 4.14117 9.09287C4.48495 9.18534 4.83786 9.23222 5.19077 9.23222C7.01525 9.23222 8.62089 7.9989 9.09362 6.2342C9.42309 5.00477 9.16524 3.72064 8.38519 2.71279C8.31617 2.62293 8.28883 2.50702 8.31227 2.39632C8.3344 2.28562 8.40473 2.18925 8.5037 2.13325C10.9832 0.737121 13.8064 0 16.6661 0C19.5258 0 22.3492 0.738421 24.8285 2.13325C24.9275 2.18925 24.9978 2.28432 25.0199 2.39632C25.0421 2.50702 25.0147 2.62293 24.9457 2.71279C24.6162 3.13735 24.3792 3.61792 24.2386 4.14149C23.9599 5.18468 24.1018 6.27474 24.6423 7.20983C25.1827 8.14493 26.0539 8.81433 27.0983 9.09433C28.3081 9.41861 29.6325 9.14902 30.6195 8.38585C30.7093 8.31682 30.8252 8.28947 30.9359 8.31291C31.0466 8.33505 31.143 8.40538 31.199 8.50436C32.595 10.984 33.3333 13.8075 33.3333 16.6674C33.3333 19.5287 32.595 22.3509 31.2003 24.8304C31.1443 24.9294 31.0479 24.9997 30.9372 25.0219C30.8252 25.0453 30.7106 25.018 30.6208 24.9476C30.1962 24.6182 29.7157 24.3811 29.1922 24.2405C28.8484 24.148 28.4955 24.1011 28.1426 24.1011C26.3181 24.1011 24.7124 25.3344 24.2397 27.0991C23.9102 28.3286 24.1681 29.6127 24.9481 30.6205C25.0172 30.7104 25.0445 30.8263 25.0211 30.937C24.9989 31.0477 24.9286 31.1441 24.8296 31.2001C22.3501 32.5962 19.5269 33.3333 16.6672 33.3333L16.6659 33.3332ZM9.26663 30.7259C11.5352 31.9214 14.0849 32.5518 16.6659 32.5518C19.2469 32.5518 21.7969 31.9215 24.0666 30.7246C23.3438 29.5863 23.1302 28.215 23.4832 26.8958C24.047 24.7899 25.9627 23.3184 28.1414 23.3184C28.5621 23.3184 28.984 23.3744 29.3929 23.4838C29.8682 23.6114 30.3149 23.8068 30.7251 24.0659C31.9206 21.7972 32.5509 19.2473 32.5509 16.6661C32.5509 14.0835 31.9206 11.5346 30.7238 9.2635C29.5987 9.97329 28.1896 10.1934 26.8953 9.84696C25.6503 9.51356 24.6098 8.71522 23.9652 7.59909C23.3206 6.48296 23.15 5.18192 23.4834 3.93833C23.611 3.46296 23.8064 3.01627 24.0655 2.60601C21.7957 1.41046 19.2472 0.7801 16.6662 0.7801C14.0852 0.7801 11.5352 1.41043 9.26556 2.60731C9.98832 3.74559 10.2019 5.11694 9.84897 6.43611C9.2851 8.54202 7.36948 10.0135 5.19203 10.0135C4.77141 10.0135 4.34948 9.95753 3.94056 9.84813C3.46523 9.7205 3.01858 9.52515 2.60836 9.26598C1.4129 11.5347 0.782583 14.0847 0.782583 16.6659C0.782583 19.2484 1.41287 21.7973 2.60966 24.0684C3.7348 23.3586 5.14255 23.1372 6.43816 23.4849C9.00879 24.1739 10.539 26.8243 9.84994 29.3952C9.72232 29.8705 9.52698 30.3172 9.26783 30.7275L9.26663 30.7259Z" fill="#7A3DE2"/>
<path fill-rule="evenodd" clip-rule="evenodd" d="M28.1468 10.0141C27.7262 10.0141 27.3055 9.95805 26.8953 9.84866C25.6503 9.51525 24.6098 8.71692 23.9652 7.60079C23.3206 6.48465 23.15 5.18362 23.4834 3.94002C24.0473 1.83282 25.9629 0.36261 28.1417 0.36261C28.5623 0.36261 28.9842 0.418612 29.3931 0.528008C30.6381 0.861411 31.6786 1.65974 32.3232 2.77588C32.9678 3.89201 33.1384 5.19305 32.8051 6.43664C32.2412 8.54255 30.3256 10.0141 28.1468 10.0141ZM28.1416 1.14254C26.3171 1.14254 24.7114 2.37586 24.2387 4.14056C23.9587 5.18375 24.102 6.27381 24.6424 7.2089C25.1828 8.144 26.0541 8.8134 27.0985 9.0934C27.4422 9.18586 27.7951 9.23275 28.1481 9.23275C29.9738 9.23275 31.5782 7.99942 32.0509 6.23472C32.3309 5.19154 32.1876 4.10148 31.6472 3.16638C31.1081 2.23129 30.2356 1.56188 29.1912 1.28189C28.8474 1.18942 28.4945 1.14254 28.1416 1.14254Z" fill="#7A3DE2"/>
<path fill-rule="evenodd" clip-rule="evenodd" d="M5.1904 32.9709C4.76978 32.9709 4.34915 32.9149 3.93893 32.8055C1.3696 32.1166 -0.161937 29.4648 0.527153 26.8953C1.09103 24.7894 3.00664 23.3179 5.18543 23.3179C5.60605 23.3179 6.02667 23.3739 6.43689 23.4833C9.00623 24.1722 10.5378 26.8226 9.84867 29.3935C9.2848 31.5007 7.36918 32.9709 5.1904 32.9709ZM5.18519 24.0994C3.36072 24.0994 1.75507 25.3327 1.28234 27.0974C0.705435 29.2515 1.98817 31.4733 4.14209 32.0501C4.48586 32.1426 4.83878 32.1895 5.19169 32.1895C7.01746 32.1895 8.62181 30.9562 9.09453 29.1902C9.67144 27.0361 8.38871 24.8142 6.23479 24.2374C5.89101 24.145 5.5381 24.0981 5.18519 24.0981V24.0994Z" fill="#7A3DE2"/>
<path fill-rule="evenodd" clip-rule="evenodd" d="M24.5236 21.3344H8.80792C8.59175 21.3344 8.41724 21.1586 8.41724 20.9437V11.1316C8.41724 10.1822 9.18947 9.40991 10.1388 9.40991H14.0027C14.1303 9.40991 14.2501 9.47243 14.323 9.57792C14.3959 9.68341 14.4129 9.81755 14.3686 9.93736L14.3009 10.1197L16.0602 11.8792L19.808 10.483L19.4031 10.078C19.2911 9.96601 19.2585 9.79801 19.3184 9.65216C19.3783 9.5063 19.5216 9.41122 19.6791 9.41122H23.1899C24.1393 9.41122 24.9128 10.1835 24.9128 11.1329V20.945C24.9128 21.1612 24.7383 21.3357 24.5221 21.3357L24.5236 21.3344ZM9.19864 20.553H24.1329V11.1317C24.1329 10.6133 23.711 10.1901 23.1914 10.1901H20.6234L20.7927 10.3581C20.8864 10.4518 20.9268 10.5873 20.8981 10.7175C20.8695 10.8478 20.777 10.9546 20.6533 11.0001L16.0994 12.6971C15.9548 12.7492 15.7947 12.7153 15.6866 12.6072L13.5717 10.4922C13.491 10.4114 13.4506 10.3007 13.4584 10.19H10.1403C9.62196 10.19 9.19874 10.612 9.19874 11.1316L9.19864 20.553Z" fill="#7A3DE2"/>
<path fill-rule="evenodd" clip-rule="evenodd" d="M22.8962 19.706H10.4349C10.2187 19.706 10.0442 19.5302 10.0442 19.3153V11.427C10.0442 11.2108 10.2187 11.0363 10.4349 11.0363H12.637C12.7946 11.0363 12.9378 11.1313 12.9977 11.2772C13.0576 11.4231 13.0251 11.5911 12.9131 11.703L12.3948 12.2214C12.2085 12.4076 12.2085 12.7111 12.3948 12.8986L13.2725 13.7777C13.4561 13.9613 13.7803 13.9613 13.964 13.7777L15.6856 12.056C15.7246 12.0169 15.7728 11.9856 15.8249 11.9661L18.2523 11.0623C18.2953 11.0453 18.3421 11.0375 18.389 11.0375H22.8949C23.1111 11.0375 23.2856 11.212 23.2856 11.4282V19.3152C23.2856 19.5314 23.1111 19.7059 22.8949 19.7059L22.8962 19.706ZM10.8256 18.9246H22.5055V11.8178H18.4606L16.179 12.6682L14.5173 14.33C14.2777 14.5696 13.96 14.7012 13.6188 14.7012C13.2789 14.7012 12.9598 14.5696 12.7202 14.33L11.8412 13.4509C11.3972 13.0068 11.3555 12.3101 11.7136 11.8178H10.8242V18.9246L10.8256 18.9246Z" fill="#7A3DE2"/>
<path fill-rule="evenodd" clip-rule="evenodd" d="M24.4116 23.9229H8.9199C7.99138 23.9229 7.23608 23.1675 7.23608 22.2376V20.9431C7.23608 20.7269 7.41059 20.5524 7.62677 20.5524H25.7058C25.922 20.5524 26.0965 20.7282 26.0965 20.9431V22.2376C26.0965 23.1662 25.3412 23.9216 24.4127 23.9216L24.4116 23.9229ZM8.01745 21.3351V22.2376C8.01745 22.7364 8.42244 23.1401 8.92121 23.1401H24.4116C24.909 23.1401 25.314 22.7351 25.314 22.2376V21.3351H8.01609H8.01745Z" fill="#7A3DE2"/>
<path fill-rule="evenodd" clip-rule="evenodd" d="M26.9432 7.6577C26.3415 7.6577 25.8662 7.18493 25.8623 6.58064V3.79749C25.8675 3.1906 26.3415 2.71783 26.9419 2.71783C27.1307 2.71783 27.3182 2.76733 27.481 2.86239L29.8876 4.25202C30.221 4.44346 30.4267 4.8029 30.4267 5.18711C30.4267 5.57259 30.2197 5.93077 29.8876 6.12221L27.481 7.51183C27.3182 7.6056 27.132 7.65639 26.9445 7.65639L26.9432 7.6577ZM26.9406 3.5005C26.7752 3.5005 26.6437 3.63334 26.6424 3.80264V6.57796C26.645 6.83973 26.9158 6.9374 27.089 6.83712L29.4956 5.4475C29.5868 5.3941 29.6441 5.29513 29.6441 5.18833C29.6441 5.08154 29.5868 4.98256 29.4956 4.92917L27.089 3.53954C27.0434 3.5135 26.994 3.5005 26.9406 3.5005Z" fill="#7A3DE2"/>
<path fill-rule="evenodd" clip-rule="evenodd" d="M5.18781 10.0046C2.5312 10.0046 0.37085 7.8427 0.37085 5.18727C0.37085 2.53045 2.5326 0.369934 5.18781 0.369934C7.84443 0.369934 10.0048 2.53185 10.0048 5.18727C10.0048 7.8441 7.84303 10.0046 5.18781 10.0046ZM5.18781 1.14976C2.96226 1.14976 1.15095 2.96004 1.15095 5.18694C1.15095 7.41267 2.96109 9.22412 5.18781 9.22412C7.41337 9.22412 9.22468 7.41384 9.22468 5.18694C9.22468 2.96121 7.41324 1.14976 5.18781 1.14976Z" fill="#7A3DE2"/>
<path fill-rule="evenodd" clip-rule="evenodd" d="M5.18789 10.0041C3.85049 10.0041 2.60812 9.46878 1.68877 8.49724C1.55073 8.35138 1.54552 8.12607 1.67575 7.9737C2.55736 6.94745 3.8375 6.35876 5.18787 6.35876C6.53832 6.35876 7.81842 6.94742 8.69867 7.9737C8.82889 8.12608 8.82368 8.35138 8.68564 8.49724C7.76626 9.46881 6.52389 10.0041 5.18652 10.0041H5.18789ZM2.52088 8.21722C3.25794 8.86839 4.19166 9.22263 5.18789 9.22263C6.18412 9.22263 7.11785 8.86839 7.85491 8.21722C7.14128 7.52958 6.18802 7.14146 5.18789 7.14146C4.18776 7.14146 3.23451 7.52958 2.52088 8.21722Z" fill="#7A3DE2"/>
<path fill-rule="evenodd" clip-rule="evenodd" d="M5.18784 7.14087C4.04836 7.14087 3.11987 6.2136 3.11987 5.07403C3.11987 3.93446 4.04706 3.0072 5.18784 3.0072C6.32733 3.0072 7.25451 3.93446 7.25451 5.07403C7.25451 6.2136 6.32733 7.14087 5.18784 7.14087ZM5.18784 3.78717C4.47812 3.78717 3.90121 4.36412 3.90121 5.0726C3.90121 5.78108 4.47812 6.35804 5.18784 6.35804C5.89627 6.35804 6.47318 5.78108 6.47318 5.0726C6.47318 4.36412 5.89627 3.78717 5.18784 3.78717Z" fill="#7A3DE2"/>
<path fill-rule="evenodd" clip-rule="evenodd" d="M3.44919 30.2759C3.34891 30.2759 3.24994 30.2381 3.17311 30.1613C3.02075 30.0089 3.02075 29.7614 3.17311 29.6091L6.65157 26.1317C6.80393 25.9793 7.05135 25.9793 7.20371 26.1317C7.35607 26.2841 7.35607 26.5315 7.20371 26.6839L3.72525 30.1613C3.64842 30.2381 3.54946 30.2759 3.44919 30.2759Z" fill="#7A3DE2"/>
<path fill-rule="evenodd" clip-rule="evenodd" d="M6.53057 29.2485C6.53057 29.9427 5.48877 29.9427 5.48877 29.2485C5.48877 28.5544 6.53057 28.5544 6.53057 29.2485Z" fill="#7A3DE2"/>
<path fill-rule="evenodd" clip-rule="evenodd" d="M4.68267 27.2496C4.68267 27.9437 3.64087 27.9437 3.64087 27.2496C3.64087 26.5541 4.68267 26.5541 4.68267 27.2496Z" fill="#7A3DE2"/>
<path fill-rule="evenodd" clip-rule="evenodd" d="M13.6199 14.703C13.28 14.703 12.961 14.5714 12.7214 14.3318L11.8423 13.4527C11.3514 12.9617 11.3514 12.1621 11.8423 11.6711L13.5717 9.94155C13.7189 9.79438 13.9781 9.79438 14.1239 9.94155L16.2388 12.0566C16.3911 12.209 16.3911 12.4564 16.2388 12.6088L14.5172 14.3305C14.2775 14.5701 13.9598 14.7017 13.6186 14.7017L13.6199 14.703ZM13.8478 10.7712L12.3945 12.2233C12.2083 12.4095 12.2083 12.713 12.3945 12.9005L13.2722 13.7796C13.4558 13.9632 13.7801 13.9632 13.9637 13.7796L15.4092 12.334L13.8465 10.7712H13.8478Z" fill="#7A3DE2"/>
<path fill-rule="evenodd" clip-rule="evenodd" d="M15.9627 12.7197C15.8611 12.7197 15.7608 12.6794 15.6866 12.6051L13.5717 10.4901C13.4636 10.382 13.4285 10.2205 13.4819 10.0772L15.1787 5.52427C15.2256 5.39925 15.3311 5.30678 15.4613 5.27943C15.5915 5.25207 15.7269 5.29115 15.8207 5.38492L20.7927 10.3573C20.8864 10.4511 20.9268 10.5865 20.8982 10.7167C20.8695 10.847 20.7771 10.9538 20.6533 10.9993L16.1007 12.6963C16.0565 12.7132 16.0109 12.721 15.964 12.721L15.9627 12.7197ZM14.301 10.115L16.0603 11.8745L19.8081 10.4784L15.6969 6.36683L14.301 10.115Z" fill="#7A3DE2"/>
<path fill-rule="evenodd" clip-rule="evenodd" d="M19.0658 9.57378C18.9617 9.57378 18.8627 9.53341 18.7898 9.45918L16.7179 7.38714C16.6437 7.31291 16.602 7.21263 16.6033 7.10844C16.6046 7.00425 16.6463 6.90397 16.7218 6.83104C17.0695 6.49373 17.5292 6.3075 18.0136 6.3075C18.5098 6.3075 18.976 6.50024 19.3263 6.85058C20.0386 7.56296 20.0478 8.73247 19.3459 9.45529C19.2729 9.53082 19.1727 9.5738 19.0685 9.5738L19.0658 9.57378ZM17.6034 7.16835L19.0059 8.57097C19.1648 8.18156 19.0867 7.71533 18.7728 7.40146C18.4694 7.09801 17.9889 7.00815 17.6034 7.16704L17.6034 7.16835Z" fill="#7A3DE2"/>
<path fill-rule="evenodd" clip-rule="evenodd" d="M17.5322 16.5109C17.4606 16.5109 17.3889 16.4914 17.3238 16.451L14.033 14.3842C13.9327 14.3217 13.8663 14.2149 13.852 14.0977C13.839 13.9791 13.8794 13.8619 13.964 13.7773L15.2702 12.4697C15.3991 12.3408 15.5996 12.3173 15.7546 12.415L19.0454 14.4818C19.1457 14.5443 19.2121 14.6511 19.2251 14.7684C19.2381 14.8869 19.1978 15.0041 19.1131 15.0887L17.8056 16.3963C17.7301 16.4718 17.6298 16.5109 17.5296 16.5109H17.5322ZM14.8652 13.9844L17.4775 15.624L18.2172 14.8843L15.6049 13.2446L14.8652 13.9844Z" fill="#7A3DE2"/>
<path fill-rule="evenodd" clip-rule="evenodd" d="M19.8603 6.77833C19.76 6.77833 19.6598 6.74056 19.5842 6.66372C19.4319 6.51135 19.4319 6.2639 19.5842 6.11154L20.8526 4.84304C21.005 4.69067 21.2524 4.69067 21.4048 4.84304C21.5571 4.99542 21.5571 5.24286 21.4048 5.39522L20.1364 6.66372C20.0609 6.74056 19.9606 6.77833 19.8603 6.77833Z" fill="#7A3DE2"/>
<path fill-rule="evenodd" clip-rule="evenodd" d="M19.044 5.96059C18.8278 5.96059 18.6533 5.78608 18.6533 5.56988V3.77524C18.6533 3.55904 18.8291 3.38452 19.044 3.38452C19.2589 3.38452 19.4347 3.55904 19.4347 3.77524V5.56988C19.4347 5.78607 19.2589 5.96059 19.044 5.96059Z" fill="#7A3DE2"/>
<path fill-rule="evenodd" clip-rule="evenodd" d="M22.4701 7.59436H20.6756C20.4594 7.59436 20.2849 7.41984 20.2849 7.20364C20.2849 6.98745 20.4607 6.81293 20.6756 6.81293H22.4701C22.6863 6.81293 22.8608 6.98744 22.8608 7.20364C22.8608 7.41983 22.6863 7.59436 22.4701 7.59436Z" fill="#7A3DE2"/>
<path fill-rule="evenodd" clip-rule="evenodd" d="M16.3558 17.1032H13.4987C13.2825 17.1032 13.108 16.9274 13.108 16.7125C13.108 16.4963 13.2825 16.3218 13.4987 16.3218H16.3558C16.572 16.3218 16.7465 16.4963 16.7465 16.7125C16.7465 16.9287 16.572 17.1032 16.3558 17.1032ZM12.1613 17.1032H11.626C11.4099 17.1032 11.2354 16.9274 11.2354 16.7125C11.2354 16.4963 11.4099 16.3218 11.626 16.3218H12.1613C12.3774 16.3218 12.552 16.4963 12.552 16.7125C12.552 16.9287 12.3775 17.1032 12.1613 17.1032Z" fill="#7A3DE2"/>
<path fill-rule="evenodd" clip-rule="evenodd" d="M16.356 18.5464H15.8221C15.6059 18.5464 15.4314 18.3706 15.4314 18.1557C15.4314 17.9408 15.6059 17.765 15.8221 17.765H16.356C16.5722 17.765 16.7467 17.9408 16.7467 18.1557C16.7467 18.3706 16.5722 18.5464 16.356 18.5464ZM14.4846 18.5464H11.6275C11.4113 18.5464 11.2368 18.3706 11.2368 18.1557C11.2368 17.9408 11.4113 17.765 11.6275 17.765H14.4846C14.7008 17.765 14.8753 17.9408 14.8753 18.1557C14.8753 18.3706 14.7008 18.5464 14.4846 18.5464Z" fill="#7A3DE2"/>
</svg>
