<svg width="34" height="34" viewBox="0 0 34 34" fill="none" xmlns="http://www.w3.org/2000/svg">
<path d="M17.8278 10.3372C19.5182 10.3372 21.112 11.1455 22.1405 12.5233C23.169 13.9012 23.5154 15.6929 23.0777 17.3702C22.64 19.0475 21.4665 20.4197 19.905 21.0833C18.3434 21.7481 16.5698 21.6281 15.1062 20.7592C13.6427 19.8902 12.6545 18.3717 12.4344 16.6503C12.2142 14.9288 12.7861 13.2008 13.9811 11.9718C15.0002 10.9236 16.3846 10.3345 17.8278 10.3372ZM0.719718 20.3727H2.86262C3.0506 20.3713 3.23051 20.4486 3.36208 20.5865H3.36343C3.48829 20.7175 3.56617 20.8886 3.58094 21.0706L3.62659 21.5837H5.53318C5.93197 21.5837 6.25555 21.9147 6.25689 22.3244V22.5533L9.7962 22.5313V22.5299C10.2084 22.5216 10.6152 22.6306 10.971 22.8457L13.6671 24.4333H13.6658C13.7651 24.4912 13.8591 24.5574 13.9504 24.6291C13.9867 24.6553 14.0189 24.6843 14.0498 24.7132H20.1643C21.08 24.716 21.8332 25.4567 21.8721 26.3973L27.5625 23.0209C28.3681 22.5464 29.3939 22.8168 29.8786 23.6305C29.8947 23.6554 29.9081 23.6816 29.9202 23.7091C30.3579 24.545 30.0706 25.5863 29.2717 26.0608C29.2636 26.0663 29.2556 26.0704 29.2462 26.0732L17.1097 33.2716C17.0063 33.3323 16.8855 33.3489 16.77 33.3185H16.7673L8.35815 31.1145C8.29907 31.0979 8.23865 31.0855 8.17689 31.0772C8.11513 31.0703 8.05202 31.0662 7.99026 31.0676L6.25553 31.0869V31.3227C6.25418 31.4993 6.19242 31.6689 6.08232 31.8027C6.07024 31.8193 6.05681 31.8331 6.04338 31.8469C5.90778 31.9862 5.72383 32.0634 5.53316 32.0634H4.55569L4.59462 32.491V32.4923C4.59731 32.513 4.59865 32.5337 4.59865 32.5544C4.59731 32.7447 4.52212 32.9268 4.38919 33.0592C4.26835 33.1806 4.11126 33.2551 3.94342 33.2702C3.90985 33.2744 3.88837 33.2758 3.87763 33.2758H0.719679C0.527679 33.2758 0.34509 33.1971 0.209458 33.0592C0.196031 33.0454 0.183947 33.0302 0.173205 33.0178V33.0165C0.0617634 32.8827 0 32.7116 0 32.5337V21.1134C0 20.9176 0.0765332 20.7286 0.210798 20.5893V20.5879C0.346407 20.4486 0.529009 20.3714 0.719679 20.3714L0.719718 20.3727ZM3.70983 22.5258L4.47248 31.1266H5.34117L5.33982 22.5229L3.70983 22.5258ZM2.6867 21.3106H0.914402V32.3376H3.66552L2.6867 21.3106ZM3.687 32.5791V32.5653C3.687 32.5763 3.69103 32.5915 3.687 32.5791ZM6.25554 23.4871V26.2718L6.29447 30.1529L7.98222 30.1336L7.98356 30.135C8.08426 30.1322 8.18496 30.1378 8.28566 30.1474C8.38636 30.1612 8.48706 30.1805 8.58508 30.2067L16.8169 32.3625L28.7894 25.2636C28.7975 25.2581 28.8055 25.2526 28.8136 25.2485C29.1842 25.025 29.3184 24.5409 29.117 24.1506L29.1036 24.1313H29.1049C28.9989 23.9437 28.8257 23.8085 28.6229 23.752C28.4189 23.6954 28.2013 23.7244 28.0174 23.832L21.167 27.8939C21.1603 27.8994 21.1523 27.9036 21.1455 27.9091L21.1348 27.9146L21.1335 27.916C21.1267 27.9201 21.1187 27.9256 21.1106 27.9284C20.8421 28.1146 20.5266 28.2167 20.203 28.2236H20.1721C20.152 28.2249 20.1224 28.2277 20.0835 28.2291C20.0499 28.2291 20.011 28.2305 19.9667 28.2305L18.5851 28.2236H12.1888C11.935 28.2236 11.7309 28.0139 11.7309 27.7532C11.7309 27.4939 11.935 27.2829 12.1888 27.2829H20.1642C20.6032 27.2829 20.9577 26.9188 20.9577 26.4678C20.9577 26.0182 20.6032 25.6526 20.1642 25.6526H12.1888C11.935 25.6526 11.7309 25.4416 11.7309 25.1823C11.7309 24.923 11.935 24.712 12.1888 24.712H12.3016L10.5145 23.6596C10.4071 23.5948 10.2902 23.5452 10.1694 23.5107C10.0486 23.4776 9.92236 23.4624 9.7975 23.4652L6.25554 23.4871ZM29.8638 17.308H26.4883C26.2359 17.308 26.0305 17.097 26.0305 16.8377V15.0157C26.0305 14.7564 26.2359 14.5454 26.4883 14.5454H29.8638V13.3772C29.8624 13.1813 29.9806 13.0061 30.1578 12.9372C30.335 12.8668 30.5364 12.9179 30.6627 13.0641L33.1949 15.5908V15.5922C33.2822 15.6777 33.3319 15.7963 33.3332 15.9205C33.3359 16.0446 33.2889 16.1646 33.2043 16.2543C32.3652 17.1163 31.4924 17.9645 30.6399 18.8141C30.5083 18.9452 30.3136 18.9824 30.1444 18.9093C29.9766 18.8362 29.8665 18.6679 29.8651 18.479L29.8638 17.308ZM26.9461 16.3687H30.3216C30.574 16.3687 30.7781 16.5784 30.7794 16.8377V17.3673L32.2215 15.9274L30.7794 14.4861V15.0157C30.7794 15.275 30.574 15.486 30.3216 15.486H26.9461V16.3687ZM27.2885 8.16225L24.9026 10.6132C24.8167 10.7014 24.6999 10.7511 24.579 10.7511C24.4568 10.7511 24.34 10.7014 24.2554 10.6132L23.0014 9.32497C22.8228 9.14153 22.8228 8.8436 23.0014 8.66017L25.3873 6.20649L24.5817 5.37892V5.3803C24.4461 5.24099 24.4085 5.02997 24.4891 4.85204C24.5683 4.67274 24.7482 4.56516 24.9389 4.58033L28.4634 4.5293C28.5842 4.52654 28.701 4.57482 28.787 4.66171C28.8742 4.7486 28.9226 4.86722 28.9239 4.99135C28.9226 6.2106 28.8904 7.4409 28.8742 8.6617V8.66032C28.8729 8.84928 28.7615 9.01892 28.5909 9.09067C28.4204 9.16239 28.2257 9.12101 28.0955 8.9886H28.0942L27.2885 8.16225ZM24.579 9.61736L26.9649 7.16368L26.9663 7.16506C27.0509 7.0754 27.1677 7.02575 27.2885 7.02575C27.4107 7.02575 27.5275 7.0754 27.6121 7.16506L27.9773 7.54021L28.0055 5.47133L25.9928 5.50167L26.358 5.87683V5.87545C26.5366 6.05889 26.5366 6.35681 26.358 6.54024L23.9721 8.99393L24.579 9.61736ZM5.79391 14.5468H9.16803C9.29021 14.5468 9.40702 14.5965 9.49295 14.6848C9.57889 14.773 9.62588 14.893 9.62588 15.0172V16.8377C9.62588 16.9633 9.57889 17.0833 9.49295 17.1715C9.40702 17.2598 9.29021 17.3095 9.16803 17.3081H5.79391V18.4791C5.79391 18.7384 5.58983 18.948 5.33742 18.9494C5.20584 18.9494 5.08097 18.8928 4.99369 18.7908L2.46142 16.264C2.37549 16.1771 2.32582 16.0585 2.32447 15.9343C2.32313 15.8102 2.37012 15.6902 2.45471 15.6019C3.29387 14.7399 4.16528 13.8917 5.01651 13.0407V13.0393C5.14809 12.9083 5.34412 12.871 5.51195 12.9441C5.68113 13.0186 5.79122 13.1883 5.79122 13.3772L5.79391 14.5468ZM8.71019 15.4875H5.33742C5.08499 15.4861 4.87958 15.2765 4.87958 15.0172V14.4875L3.43622 15.9289L4.87958 17.3688V16.8378C4.87958 16.5785 5.08501 16.3688 5.33742 16.3688H8.71153L8.71019 15.4875ZM10.269 6.20938L12.655 8.66307V8.66169C12.7409 8.74996 12.7906 8.86995 12.7906 8.99409C12.7906 9.11823 12.7409 9.23822 12.655 9.32649L11.4009 10.6147C11.2223 10.7981 10.9337 10.7981 10.7538 10.6147L8.36784 8.16102L7.56223 8.98996C7.42662 9.12788 7.22254 9.16513 7.04933 9.08375C6.87478 9.00237 6.76871 8.81893 6.78214 8.62445L6.7338 5.00529V5.00391C6.73246 4.87978 6.77945 4.75978 6.86404 4.67151C6.94863 4.58186 7.0641 4.53083 7.18628 4.53083C8.37319 4.53221 9.57086 4.56531 10.7593 4.58186H10.7579C10.8788 4.58324 10.9942 4.63427 11.0788 4.72255C11.1634 4.8122 11.2104 4.93219 11.2091 5.05632C11.2077 5.1777 11.1594 5.29493 11.0748 5.38183H11.0761L10.269 6.20938ZM11.6842 8.99409L9.29964 6.5404C9.21371 6.45213 9.16538 6.33352 9.16538 6.208C9.16538 6.08387 9.21371 5.96387 9.29964 5.87698L9.66485 5.50183L7.65084 5.47148L7.67904 7.54037L8.04424 7.16521C8.13017 7.07694 8.24698 7.02591 8.36782 7.02591C8.49001 7.02591 8.60682 7.07694 8.69275 7.16521L11.0813 9.6189L11.6842 8.99409ZM19.1736 3.56818V7.03423V7.03286C19.1736 7.15837 19.1252 7.27698 19.0393 7.36526C18.9547 7.45353 18.8379 7.50318 18.7157 7.50318H16.9434C16.8212 7.50318 16.7044 7.45353 16.6185 7.36526C16.5326 7.27698 16.4842 7.15699 16.4842 7.03148V3.56542H15.3457C15.155 3.56542 14.9858 3.44404 14.9174 3.26198C14.8502 3.07992 14.8999 2.87302 15.0422 2.74336L17.502 0.14209C17.5865 0.0524377 17.702 0.00140582 17.8229 2.87753e-05C17.9437 -0.00135074 18.0605 0.0469225 18.1464 0.133818C18.9856 0.995848 19.8114 1.891 20.6384 2.76542V2.7668C20.7673 2.90059 20.8049 3.10196 20.7338 3.27574C20.6626 3.44815 20.4961 3.56125 20.3135 3.56125V3.56263L19.1736 3.56818ZM18.2579 6.56117V3.09511C18.2579 2.97098 18.3049 2.85098 18.3908 2.76271C18.4767 2.67443 18.5935 2.62478 18.7144 2.62478H19.2313L17.8282 1.14347L16.4252 2.62478H16.9407C17.0616 2.62478 17.1784 2.67443 17.2643 2.76271C17.3503 2.85098 17.3986 2.97097 17.3986 3.09511V6.56117H18.2579ZM17.8282 8.00247C20.2249 8.00247 22.4846 9.14863 23.9441 11.103C25.4022 13.056 25.8936 15.5968 25.2733 17.9745C24.6517 20.3537 22.9894 22.2998 20.7754 23.2418C18.56 24.1839 16.0451 24.0142 13.9693 22.7826C11.8935 21.5509 10.4933 19.3979 10.1805 16.9566C9.86762 14.5153 10.6786 12.0631 12.373 10.3224C13.8177 8.83421 15.7807 7.99972 17.8282 8.00247ZM22.6348 10.9858C21.1404 9.44929 19.035 8.71416 16.938 8.99691C14.8407 9.27966 12.992 10.5472 11.9337 12.4285C10.8757 14.3098 10.7294 16.5897 11.5377 18.5966C12.3473 20.6048 14.0189 22.1109 16.061 22.6737C18.1046 23.2365 20.285 22.791 21.9634 21.4683C23.6418 20.1469 24.6246 18.0973 24.6246 15.9251C24.6273 14.0728 23.9117 12.2947 22.6348 10.9858ZM18.2861 19.0104C18.2887 19.1373 18.2431 19.2601 18.1558 19.3511C18.0699 19.4421 17.9517 19.4932 17.8282 19.4932C17.7047 19.4932 17.5865 19.4421 17.5006 19.3511C17.4133 19.2601 17.3677 19.1373 17.3704 19.0104V18.5429C16.7286 18.336 16.2922 17.7264 16.2922 17.0354C16.2922 16.7747 16.4976 16.565 16.75 16.565C17.0024 16.565 17.2079 16.7747 17.2079 17.0354C17.2079 17.3871 17.4858 17.6726 17.8282 17.674C18.0793 17.674 18.3048 17.5181 18.4015 17.2795C18.4968 17.0409 18.4445 16.7664 18.2673 16.5843C18.1504 16.4643 17.9934 16.3981 17.8282 16.3981C17.0468 16.3981 16.3902 15.7954 16.303 14.9968C16.2143 14.1982 16.7246 13.4603 17.4872 13.2824V12.852C17.4832 12.7251 17.5301 12.6024 17.6161 12.5114C17.702 12.4203 17.8202 12.3693 17.9437 12.3693C18.0672 12.3693 18.1854 12.4203 18.2713 12.5114C18.3572 12.6024 18.4042 12.7251 18.4002 12.852V13.3568V13.3555C18.9816 13.5968 19.3629 14.1747 19.3642 14.8188C19.3642 15.0795 19.1588 15.2891 18.9064 15.2891C18.654 15.2891 18.4485 15.0795 18.4485 14.8188C18.4485 14.6506 18.3841 14.4878 18.2673 14.3692C18.1505 14.2492 17.9934 14.1816 17.8283 14.1816C17.6618 14.1775 17.4993 14.2437 17.3798 14.3637C17.2603 14.4837 17.1932 14.6478 17.1932 14.8202C17.1932 14.9913 17.2603 15.1554 17.3798 15.2754C17.4993 15.3954 17.6618 15.4616 17.8283 15.4575C18.5869 15.4575 19.2313 16.0271 19.3455 16.7981C19.4596 17.5691 19.0098 18.3097 18.2861 18.5415L18.2861 19.0104ZM21.0278 12.6382C19.5012 11.0687 17.1073 10.8259 15.312 12.0576C13.5155 13.2893 12.816 15.6534 13.6431 17.7042C14.4688 19.7538 16.5902 20.9192 18.7075 20.4861C20.8262 20.053 22.3527 18.1442 22.3527 15.9249C22.3527 14.6919 21.8764 13.5099 21.0278 12.6382Z" fill="#7A3DE2"/>
</svg>
