<svg width="34" height="34" viewBox="0 0 34 34" fill="none" xmlns="http://www.w3.org/2000/svg">
<path d="M31.6665 8.33344H27.7776C27.535 8.33401 27.2955 8.38741 27.0756 8.48993C26.8557 8.59245 26.6608 8.74163 26.5044 8.9271C26.348 9.11257 26.2339 9.32988 26.17 9.56392C26.1061 9.79796 26.0939 10.0431 26.1343 10.2823C26.2058 10.6449 26.3926 10.9746 26.6668 11.2223C26.9411 11.47 27.288 11.6224 27.656 11.6568L24.4443 14.8656V5.00013C24.4443 4.41076 24.2102 3.84553 23.7935 3.42878C23.3767 3.01204 22.8115 2.77791 22.2221 2.77791H18.7866C18.6721 2.45408 18.4603 2.17352 18.1803 1.97463C17.9003 1.77574 17.5656 1.66823 17.2221 1.66681H15.4105C15.0529 1.15237 14.5762 0.732089 14.021 0.441842C13.4658 0.151594 12.8486 0 12.2222 0C11.5957 0 10.9785 0.151594 10.4233 0.441842C9.86811 0.732089 9.39139 1.15237 9.03385 1.66681H7.22219C6.87871 1.66823 6.54406 1.77574 6.26403 1.97463C5.98399 2.17352 5.77224 2.45408 5.65775 2.77791H2.22221C1.63284 2.77791 1.06762 3.01204 0.650871 3.42878C0.234125 3.84553 0 4.41076 0 5.00013L0 28.8889C0 29.4783 0.234125 30.0435 0.650871 30.4603C1.06762 30.877 1.63284 31.1111 2.22221 31.1111H13.3333V32.2222C13.3333 32.5169 13.4503 32.7995 13.6587 33.0079C13.8671 33.2163 14.1497 33.3333 14.4444 33.3333H32.2221C32.5168 33.3333 32.7994 33.2163 33.0077 33.0079C33.2161 32.7995 33.3332 32.5169 33.3332 32.2222V31.1111C33.3326 30.917 33.2809 30.7263 33.1834 30.5584C33.0859 30.3905 32.946 30.2512 32.7776 30.1545V19.4445C32.7776 19.1498 32.6606 18.8672 32.4522 18.6588C32.2438 18.4505 31.9612 18.3334 31.6665 18.3334H28.3332C28.0385 18.3334 27.7559 18.4505 27.5475 18.6588C27.3392 18.8672 27.2221 19.1498 27.2221 19.4445V30H26.111V22.2223C26.111 21.9276 25.9939 21.645 25.7856 21.4366C25.5772 21.2282 25.2946 21.1112 24.9999 21.1112H24.4443V19.3334C24.6779 19.2576 24.8905 19.128 25.0649 18.9551L30.0049 14.0156C30.0228 14.247 30.0888 14.4721 30.1986 14.6766C30.3084 14.881 30.4595 15.0604 30.6425 15.2032C30.8254 15.346 31.0361 15.4491 31.2611 15.5059C31.4861 15.5628 31.7205 15.5722 31.9493 15.5334C32.3436 15.4545 32.6978 15.24 32.9505 14.9273C33.2033 14.6146 33.3387 14.2233 33.3332 13.8212V10.0001C33.3332 9.55808 33.1576 9.13416 32.845 8.8216C32.5325 8.50904 32.1085 8.33344 31.6665 8.33344ZM23.3332 5.00013V14.8679L22.8454 14.3818C22.6702 14.2077 22.4568 14.077 22.2221 14.0001V6.11123C22.2221 5.81655 22.1051 5.53393 21.8967 5.32556C21.6883 5.11719 21.4057 5.00013 21.111 5.00013H18.8888V3.88902H22.2221C22.5168 3.88902 22.7994 4.00608 23.0078 4.21446C23.2162 4.42283 23.3332 4.70544 23.3332 5.00013ZM6.66663 3.33347C6.66663 3.18612 6.72517 3.04482 6.82935 2.94063C6.93354 2.83644 7.07485 2.77791 7.22219 2.77791H9.33884C9.43646 2.77801 9.53237 2.75238 9.61693 2.70362C9.70149 2.65485 9.7717 2.58467 9.82051 2.50014C10.0636 2.07817 10.4136 1.72769 10.8352 1.484C11.2568 1.2403 11.7352 1.112 12.2222 1.112C12.7091 1.112 13.1875 1.2403 13.6091 1.484C14.0308 1.72769 14.3807 2.07817 14.6238 2.50014C14.6726 2.58467 14.7428 2.65485 14.8274 2.70362C14.912 2.75238 15.0079 2.77801 15.1055 2.77791H17.2221C17.3695 2.77791 17.5108 2.83644 17.615 2.94063C17.7192 3.04482 17.7777 3.18612 17.7777 3.33347V5.55568H6.66663V3.33347ZM17.7777 6.66679C17.9719 6.6662 18.1625 6.61456 18.3304 6.51705C18.4983 6.41954 18.6376 6.27959 18.7344 6.11123H21.111V14.0001C20.8774 14.0759 20.6649 14.2055 20.4905 14.3784L14.3755 20.4934C14.0664 20.806 13.8935 21.2282 13.8947 21.6679C13.8959 22.1075 14.0711 22.5288 14.3819 22.8397C14.6928 23.1506 15.114 23.3259 15.5536 23.3272C15.9933 23.3285 16.4156 23.1558 16.7283 22.8467L21.111 18.4678V21.2656C20.9427 21.3624 20.8027 21.5017 20.7052 21.6696C20.6077 21.8375 20.556 22.0281 20.5555 22.2223V27.7778H19.4444V26.1111C19.4444 25.8165 19.3273 25.5338 19.1189 25.3255C18.9105 25.1171 18.6279 25 18.3332 25H14.9999C14.7052 25 14.4226 25.1171 14.2143 25.3255C14.0059 25.5338 13.8888 25.8165 13.8888 26.1111V27.7778H3.33332V6.11123H5.70997C5.80672 6.27959 5.94603 6.41954 6.11395 6.51705C6.28186 6.61456 6.47246 6.6662 6.66663 6.66679H17.7777ZM19.4444 30V28.8889H20.5555V30H19.4444ZM18.3332 30H14.9999V26.1111H18.3332V30ZM2.22221 30C1.92753 30 1.64491 29.883 1.43654 29.6746C1.22817 29.4662 1.11111 29.1836 1.11111 28.8889V5.00013C1.11111 4.70544 1.22817 4.42283 1.43654 4.21446C1.64491 4.00608 1.92753 3.88902 2.22221 3.88902H5.55553V5.00013H3.33332C3.03863 5.00013 2.75602 5.11719 2.54765 5.32556C2.33927 5.53393 2.22221 5.81655 2.22221 6.11123V27.7778C2.22221 28.0725 2.33927 28.3551 2.54765 28.5635C2.75602 28.7719 3.03863 28.8889 3.33332 28.8889H13.8888V30H2.22221ZM32.2221 32.2222H14.4444V31.1111H32.2221V32.2222ZM28.3332 19.4445H31.6665V30H28.3332V19.4445ZM24.9999 30H21.6666V22.2223H24.9999V30ZM22.2221 21.1112V18.4656L22.7099 18.9517C22.8851 19.1257 23.0986 19.2564 23.3332 19.3334V21.1112H22.2221ZM32.2221 13.8212C32.2274 13.9606 32.1849 14.0975 32.1016 14.2094C32.0183 14.3213 31.8993 14.4013 31.7643 14.4362C31.6841 14.4508 31.6016 14.4474 31.5229 14.4262C31.4442 14.4049 31.3712 14.3664 31.3093 14.3134C31.2475 14.2612 31.1978 14.1963 31.1635 14.123C31.1293 14.0497 31.1113 13.9699 31.111 13.889V12.6779C31.1109 12.568 31.0783 12.4606 31.0173 12.3693C30.9563 12.2779 30.8695 12.2068 30.768 12.1647C30.6665 12.1227 30.5548 12.1117 30.4471 12.1331C30.3393 12.1545 30.2403 12.2074 30.1626 12.2851L24.2777 18.1706C24.1739 18.273 24.0339 18.3301 23.8882 18.3296C23.7425 18.3291 23.6029 18.2709 23.4999 18.1678L22.061 16.7345C21.9568 16.6305 21.8157 16.5721 21.6685 16.5721C21.5213 16.5721 21.3802 16.6305 21.276 16.7345L15.9444 22.0606C15.8406 22.1644 15.6998 22.2227 15.553 22.2227C15.4062 22.2227 15.2654 22.1644 15.1616 22.0606C15.0578 21.9568 14.9995 21.816 14.9995 21.6692C14.9995 21.5224 15.0578 21.3816 15.1616 21.2778L21.2777 15.1629C21.3281 15.1106 21.3885 15.069 21.4553 15.0406C21.5221 15.0122 21.594 14.9975 21.6666 14.9975C21.7392 14.9975 21.811 15.0122 21.8779 15.0406C21.9447 15.069 22.0051 15.1106 22.0555 15.1629L23.4943 16.5962C23.5985 16.7002 23.7397 16.7586 23.8868 16.7586C24.034 16.7586 24.1752 16.7002 24.2793 16.5962L29.3793 11.5018C29.4561 11.4241 29.5083 11.3255 29.5293 11.2183C29.5504 11.1112 29.5394 11.0002 29.4977 10.8992C29.4561 10.7983 29.3856 10.7118 29.295 10.6507C29.2045 10.5896 29.098 10.5565 28.9888 10.5557H27.8449C27.7056 10.5609 27.5687 10.5183 27.457 10.435C27.3452 10.3518 27.2653 10.2328 27.2304 10.0979C27.216 10.0177 27.2195 9.93527 27.2407 9.8566C27.262 9.77792 27.3004 9.70493 27.3532 9.64288C27.4054 9.58108 27.4704 9.53134 27.5436 9.4971C27.6169 9.46285 27.6968 9.44493 27.7776 9.44455H31.6665C31.8139 9.44455 31.9552 9.50308 32.0593 9.60727C32.1635 9.71145 32.2221 9.85276 32.2221 10.0001V13.8212Z" fill="#7A3DE2"/>
</svg>
