<svg width="34" height="34" viewBox="0 0 34 34" fill="none" xmlns="http://www.w3.org/2000/svg">
<path d="M21.6357 11.4773C22.8967 11.4773 23.9175 10.6366 23.9175 9.6077C23.9175 8.57455 22.8915 7.73814 21.6357 7.73814C20.38 7.73814 19.3539 8.57879 19.3539 9.6077C19.3539 10.6366 20.3799 11.4773 21.6357 11.4773ZM21.6357 8.41608C22.4355 8.41608 23.0901 8.94823 23.0901 9.60773C23.0901 10.263 22.4406 10.7994 21.6357 10.7994C20.836 10.7994 20.1813 10.2672 20.1813 9.60773C20.1865 8.94823 20.836 8.41608 21.6357 8.41608ZM21.0657 14.9049C21.1417 15.021 21.2816 15.0818 21.4319 15.0818C21.4975 15.0818 21.5649 15.0677 21.6271 15.0422C21.8309 14.9516 21.9052 14.7493 21.7946 14.5823L20.5561 12.6915L20.551 12.6872C20.5337 12.6618 20.506 12.6405 20.4853 12.6221C20.4715 12.6108 20.4629 12.5967 20.4508 12.5853C20.4369 12.574 20.4162 12.5712 20.4024 12.5641C20.3713 12.55 20.3402 12.5358 20.3057 12.5245C20.3057 12.5245 20.3005 12.5245 20.3005 12.5202C20.2832 12.516 20.2608 12.5202 20.2435 12.516C20.2124 12.5117 20.1778 12.5089 20.1468 12.5117C20.1157 12.516 20.0846 12.5259 20.0587 12.533C20.0414 12.54 20.0189 12.54 20.0017 12.5471L17.694 13.5619C17.4902 13.6524 17.4159 13.8548 17.5264 14.0218C17.637 14.1888 17.884 14.2497 18.0878 14.1591L19.5163 13.5321C17.4504 18.9594 13.0422 22.4086 9.36849 23.9089C8.96603 23.3796 8.2544 23.0243 7.43564 23.0243C6.1747 23.0243 5.15386 23.865 5.15386 24.8939C5.15386 25.927 6.17987 26.7635 7.43564 26.7635C8.69658 26.7635 9.71742 25.9228 9.71742 24.8939C9.71742 24.775 9.70015 24.6547 9.67251 24.5429C11.7902 23.6881 13.9078 22.3224 15.6646 20.6666C17.765 18.6853 19.3213 16.3516 20.3129 13.7361L21.0657 14.9049ZM7.42861 26.0925C6.62886 26.0925 5.9742 25.5604 5.9742 24.9009C5.9742 24.2456 6.62369 23.7092 7.42861 23.7092C8.22835 23.7092 8.88301 24.2414 8.88301 24.9009C8.87955 25.5604 8.23007 26.0925 7.42861 26.0925ZM11.5672 11.4051L12.6865 10.488L11.5672 9.57096C11.4031 9.43651 11.4031 9.22281 11.5672 9.08978C11.7313 8.95534 11.9921 8.95534 12.1545 9.08978L13.2738 10.0068L14.393 9.08978C14.5571 8.95534 14.8179 8.95534 14.9803 9.08978C15.1444 9.22423 15.1444 9.43794 14.9803 9.57096L13.861 10.488L14.9803 11.4051C15.1444 11.5395 15.1444 11.7532 14.9803 11.8863C14.9008 11.9514 14.7937 11.9882 14.6884 11.9882C14.583 11.9882 14.4759 11.9556 14.3965 11.8863L13.2772 10.9692L12.1579 11.8863C11.9938 12.0207 11.733 12.0207 11.5707 11.8863C11.4048 11.7561 11.4049 11.5395 11.5672 11.4051ZM5.78428 14.8682L6.90355 13.9511L5.78428 13.0341C5.62019 12.8996 5.62019 12.6859 5.78428 12.5529C5.94838 12.4185 6.2092 12.4185 6.37155 12.5529L7.49082 13.47L8.61009 12.5529C8.77418 12.4185 9.035 12.4185 9.19736 12.5529C9.36145 12.6873 9.36145 12.9011 9.19736 13.0341L8.07809 13.9511L9.19736 14.8682C9.36145 15.0027 9.36145 15.2164 9.19736 15.3494C9.1179 15.4145 9.01081 15.4513 8.90544 15.4513C8.80008 15.4513 8.69299 15.4187 8.61353 15.3494L7.49426 14.4323L6.37499 15.3494C6.2109 15.4838 5.95008 15.4838 5.78772 15.3494C5.62017 15.2163 5.62019 15.0026 5.78428 14.8682ZM9.68452 18.8608L10.8038 17.9437L9.68452 17.0281C9.52043 16.8936 9.52043 16.6799 9.68452 16.5469C9.84861 16.4125 10.1094 16.4125 10.2718 16.5469L11.3911 17.464L12.5103 16.5469C12.6744 16.4125 12.9352 16.4125 13.0976 16.5469C13.2617 16.6813 13.2617 16.8951 13.0976 17.0281L11.9783 17.9451L13.0976 18.8622C13.2617 18.9967 13.2617 19.2104 13.0976 19.3434C13.0181 19.4085 12.911 19.4453 12.8057 19.4453C12.7003 19.4453 12.5932 19.4127 12.5138 19.3434L11.3945 18.4263L10.2752 19.3434C10.1111 19.4778 9.85031 19.4778 9.68796 19.3434C9.52041 19.2089 9.52042 18.9924 9.68452 18.8608ZM17.7978 23.7591L16.6785 24.6762L17.7978 25.5933C17.9619 25.7277 17.9619 25.9414 17.7978 26.0744C17.7183 26.1395 17.6112 26.1763 17.5059 26.1763C17.4005 26.1763 17.2934 26.1438 17.214 26.0744L16.0947 25.1574L14.9754 26.0744C14.8113 26.2089 14.5505 26.2089 14.3882 26.0744C14.2241 25.94 14.2241 25.7263 14.3882 25.5933L15.5074 24.6762L14.3882 23.7591C14.2241 23.6247 14.2241 23.411 14.3882 23.278C14.5522 23.1435 14.8131 23.1435 14.9754 23.278L16.0947 24.195L17.214 23.278C17.3781 23.1435 17.6389 23.1435 17.8012 23.278C17.9619 23.4124 17.9619 23.6289 17.7978 23.7591ZM21.508 20.2451L20.3887 21.1621C20.2247 21.2966 19.9638 21.2966 19.8015 21.1621C19.6374 21.0277 19.6374 20.814 19.8015 20.681L20.9207 19.7639L19.8015 18.8468C19.6374 18.7124 19.6374 18.4987 19.8015 18.3657C19.9656 18.2312 20.2264 18.2312 20.3887 18.3657L21.508 19.2827L22.6273 18.3657C22.7914 18.2312 23.0522 18.2312 23.2146 18.3657C23.3786 18.5001 23.3786 18.7138 23.2146 18.8468L22.0953 19.7639L23.2146 20.681C23.3786 20.8154 23.3786 21.0291 23.2146 21.1621C23.1351 21.2272 23.028 21.264 22.9226 21.264C22.8173 21.264 22.7102 21.2315 22.6307 21.1621L21.508 20.2451ZM32.6733 26.209L31.8856 26.0929C31.7613 25.7306 31.5799 25.3754 31.3554 25.0456L31.8114 24.5064C32.0325 24.246 31.9927 23.8936 31.7181 23.67L30.718 22.8506C30.4433 22.6256 30.015 22.593 29.6972 22.7742L29.0563 23.1365V3.57206C29.0563 2.68047 28.172 1.95586 27.0838 1.95586H17.3074C17.1088 0.851957 15.9412 0 14.5317 0C13.1257 0 11.958 0.851993 11.7542 1.96014H1.97256C0.884377 1.96014 0 2.68474 0 3.57634V29.6622C0 30.5538 0.884377 31.2784 1.97256 31.2784H20.6378L21.5359 32.0143C21.8106 32.2393 22.2389 32.2719 22.5568 32.0907L23.2149 31.7171C23.6173 31.9025 24.0509 32.0469 24.4931 32.1516L24.6347 32.7969C24.7055 33.1083 25.032 33.3333 25.4223 33.3333L26.837 33.3319C27.2222 33.3319 27.5538 33.1069 27.6246 32.7955L27.7663 32.1502C28.2084 32.0455 28.642 31.8997 29.0444 31.7157L29.7026 32.0893C30.0204 32.2705 30.4505 32.2379 30.7234 32.0129L31.7235 31.1935C31.9981 30.9685 32.0379 30.6175 31.8168 30.3571L31.3608 29.8179C31.5871 29.4881 31.7632 29.1329 31.8911 28.7706L32.6787 28.6545C33.0587 28.5965 33.3333 28.329 33.3333 28.0092V26.8529C33.3333 26.5387 33.0533 26.267 32.6733 26.209ZM28.2341 3.57621V22.8504C28.0787 22.8037 27.925 22.7528 27.766 22.716L27.6244 22.0706C27.5795 21.864 27.4171 21.697 27.1995 21.6064V3.82964C27.1995 3.64142 27.0129 3.48857 26.7832 3.48857H20.6514V2.64085H27.0941C27.7211 2.64085 28.2341 3.05822 28.2341 3.57621ZM20.4476 24.5065L20.9036 25.0457C20.6774 25.3755 20.5012 25.7307 20.3734 26.093L19.5857 26.209C19.2057 26.2671 18.9311 26.5345 18.9311 26.8544V28.0106C18.9311 28.3262 19.2057 28.598 19.5857 28.656L20.3734 28.772C20.4079 28.8739 20.458 28.9673 20.4977 29.065L2.69788 29.0636V4.17075H8.46357C8.65357 4.8996 9.4447 5.44588 10.3878 5.44588H18.6788C19.6254 5.44588 20.413 4.89818 20.6031 4.17075H26.3687V21.5331H25.4274C25.0422 21.5331 24.7105 21.7581 24.6397 22.0695L24.4981 22.7148C24.0559 22.8167 23.6224 22.9653 23.2199 23.1493L22.5618 22.7757C22.244 22.5945 21.8139 22.6271 21.541 22.8521L20.5409 23.6715C20.2662 23.8937 20.2266 24.2461 20.4476 24.5065ZM12.1429 2.64074C12.3726 2.64074 12.5592 2.4879 12.5592 2.29967C12.5592 1.40807 13.4436 0.680602 14.5352 0.680602C15.6234 0.680602 16.5113 1.40521 16.5113 2.29967C16.5113 2.48789 16.6978 2.64074 16.9276 2.64074H19.8243V3.82953C19.8243 4.34469 19.3112 4.76359 18.6843 4.76359H10.3879C9.75917 4.76359 9.24791 4.34324 9.24791 3.82953V2.64074H12.1429ZM20.4476 30.357C20.3855 30.4292 20.3509 30.5098 20.3285 30.5919L1.97234 30.5933C1.34359 30.5933 0.832336 30.173 0.832336 29.6593V3.5734C0.832336 3.05824 1.34536 2.63935 1.97234 2.63935H8.41503V3.48706L2.28143 3.48565C2.0517 3.48565 1.86515 3.6385 1.86515 3.82673V29.4017C1.86515 29.59 2.0517 29.7428 2.28143 29.7428H20.8587C20.8759 29.7683 20.8846 29.7938 20.9036 29.815L20.4476 30.357ZM32.5008 27.9878L31.7184 28.1039C31.4126 28.1478 31.1743 28.3289 31.0896 28.5709C30.9791 28.8936 30.8202 29.205 30.6215 29.4979C30.4712 29.7187 30.4851 29.9833 30.6612 30.1942L31.1121 30.7306L30.1517 31.5175L29.497 31.1481C29.2448 31.0038 28.9184 30.9925 28.6472 31.1156C28.2896 31.2783 27.9079 31.4086 27.5158 31.4991C27.2187 31.5685 26.9976 31.7638 26.9458 32.0143L26.8041 32.6554H25.4465L25.3048 32.0143C25.2513 31.7638 25.0302 31.5685 24.7348 31.4991C24.341 31.4086 23.961 31.2783 23.6034 31.1156C23.334 30.9925 23.011 31.0038 22.7536 31.1481L22.0989 31.5175L21.1385 30.7306L21.5893 30.1942C21.7655 29.9876 21.7793 29.7201 21.6291 29.4979C21.4304 29.205 21.2715 28.8922 21.161 28.5709C21.0763 28.3275 20.838 28.1464 20.5322 28.1039L19.7618 27.9878V26.8726L20.5443 26.7566C20.85 26.7127 21.0884 26.5316 21.173 26.2895C21.2836 25.9669 21.4425 25.6555 21.6411 25.3625C21.7914 25.1418 21.7776 24.8771 21.6014 24.6662L21.1506 24.1298L22.111 23.343L22.7657 23.7123C23.0178 23.8567 23.3443 23.868 23.6155 23.7449C23.973 23.5779 24.3548 23.4519 24.7469 23.3613C25.044 23.292 25.2651 23.0967 25.3169 22.8462L25.4585 22.2051H26.8162L26.9578 22.8462C27.0114 23.0967 27.2325 23.292 27.5279 23.3613C27.9217 23.4519 28.3017 23.5821 28.6592 23.7449C28.9287 23.868 29.2517 23.8567 29.5091 23.7123L30.1637 23.343L31.1241 24.1298L30.6733 24.6662C30.4971 24.8729 30.4833 25.1403 30.6336 25.3625C30.8322 25.6555 30.9911 25.9683 31.1017 26.2895C31.1863 26.533 31.4247 26.7141 31.7304 26.7566L32.5129 26.8726L32.5094 27.9878H32.5008ZM26.1289 24.4808C24.1442 24.4808 22.5292 25.8027 22.5292 27.4302C22.5292 29.0563 24.1425 30.3796 26.1289 30.3796C28.1136 30.3796 29.7286 29.0578 29.7286 27.4302C29.7337 25.8069 28.1153 24.4808 26.1289 24.4808ZM26.1289 29.7016C24.6037 29.7016 23.36 28.6841 23.36 27.433C23.36 26.1833 24.602 25.1644 26.1289 25.1644C27.6541 25.1644 28.8977 26.1819 28.8977 27.433C28.8977 28.6841 27.6593 29.7016 26.1289 29.7016Z" fill="#7A3DE2"/>
</svg>
