<svg width="34" height="25" viewBox="0 0 34 25" fill="none" xmlns="http://www.w3.org/2000/svg">
<path d="M22.5806 0C17.4253 0 13.0812 4.17687 12.0667 10H10.2151V9.375C10.2151 6.9625 8.52688 5 6.45161 5C4.71237 5 3.23763 6.35125 2.8129 8.27C1.16237 8.76375 0 10.4781 0 12.5C0 14.5219 1.16237 16.2363 2.8129 16.73C3.23763 18.6488 4.71237 20 6.45161 20C8.52688 20 10.2151 18.0375 10.2151 15.625V15H12.0667C13.0812 20.8231 17.4253 25 22.5806 25C28.5097 25 33.3333 19.3925 33.3333 12.5C33.3333 5.6075 28.5097 0 22.5806 0ZM9.13979 13.75V15.625C9.13979 17.3481 7.93387 18.75 6.45161 18.75C5.11828 18.75 4.00269 17.6381 3.79892 16.1056L3.73871 15.6531L3.34946 15.5831C2.03172 15.3469 1.07527 14.05 1.07527 12.5C1.07527 10.95 2.03172 9.65312 3.35 9.41625L3.73925 9.34625L3.79946 8.89375C4.00269 7.36187 5.11828 6.25 6.45161 6.25C7.93387 6.25 9.13979 7.65188 9.13979 9.375V11.25H22.043V13.75H9.13979ZM22.5806 23.75C18.0151 23.75 14.1554 20.1106 13.1634 15H22.043V17.5H23.1183V15V13.125H23.3871C25.0177 13.125 26.3441 14.6669 26.3441 16.5625C26.3441 18.4581 25.0177 20 23.3871 20H21.7742C20.1435 20 18.8172 18.4581 18.8172 16.5625H17.7419C17.7419 19.1475 19.5505 21.25 21.7742 21.25H22.043V22.5H23.1183V21.25H23.3871C25.6108 21.25 27.4194 19.1475 27.4194 16.5625C27.4194 13.9775 25.6108 11.875 23.3871 11.875H23.1183V10V7.5H22.043V10H19.1473C18.9349 9.51812 18.8172 8.985 18.8172 8.4375C18.8172 6.54187 20.1435 5 21.7742 5H23.3871C25.0177 5 26.3441 6.54187 26.3441 8.4375H27.4194C27.4194 5.8525 25.6108 3.75 23.3871 3.75H23.1183V2.5H22.043V3.75H21.7742C19.5505 3.75 17.7419 5.8525 17.7419 8.4375C17.7419 8.97437 17.8296 9.5 17.9817 10H13.1634C14.1554 4.88937 18.0151 1.25 22.5806 1.25C27.9167 1.25 32.2581 6.29688 32.2581 12.5C32.2581 18.7031 27.9167 23.75 22.5806 23.75Z" fill="#7A3DE2"/>
</svg>
