<svg width="34" height="34" viewBox="0 0 34 34" fill="none" xmlns="http://www.w3.org/2000/svg">
<path fill-rule="evenodd" clip-rule="evenodd" d="M8.61207 3.79812C11.2718 3.79812 13.4275 5.95356 13.4275 8.61333C13.4275 11.273 11.2719 13.4285 8.61207 13.4285C5.95231 13.4285 3.79668 11.2731 3.79668 8.61333C3.79668 5.95367 5.9522 3.79812 8.61207 3.79812ZM18.6025 18.6511C18.6025 18.9606 18.3518 19.2113 18.0422 19.2113C17.7327 19.2113 17.482 18.9606 17.482 18.6511V17.6833C17.482 16.6609 18.3112 15.8317 19.3336 15.8317H25.6155C26.0189 15.8317 26.3466 15.504 26.3466 15.1006V14.1329C26.3466 13.8233 26.5973 13.5726 26.9069 13.5726C27.2164 13.5726 27.4671 13.8233 27.4671 14.1329V15.1006C27.4671 16.123 26.6379 16.9522 25.6155 16.9522H19.3336C18.9302 16.9522 18.6025 17.2799 18.6025 17.6833V18.6511ZM8.68629 20.7645C8.37675 20.7645 8.12605 20.5138 8.12605 20.2043C8.12605 19.8947 8.37675 19.644 8.68629 19.644H10.8012C11.1107 19.644 11.3614 19.8947 11.3614 20.2043C11.3614 20.5138 11.1107 20.7645 10.8012 20.7645H8.68629ZM12.9162 20.7645C12.6066 20.7645 12.3559 20.5138 12.3559 20.2043C12.3559 19.8947 12.6066 19.644 12.9162 19.644H15.0311C15.3406 19.644 15.5913 19.8947 15.5913 20.2043C15.5913 20.5138 15.3406 20.7645 15.0311 20.7645H12.9162ZM17.146 20.7645C16.8365 20.7645 16.5858 20.5138 16.5858 20.2043C16.5858 19.8947 16.8365 19.644 17.146 19.644H19.2609C19.5705 19.644 19.8212 19.8947 19.8212 20.2043C19.8212 20.5138 19.5705 20.7645 19.2609 20.7645H17.146ZM21.3773 20.7645C21.0678 20.7645 20.8171 20.5138 20.8171 20.2043C20.8171 19.8947 21.0678 19.644 21.3773 19.644H23.4922C23.8018 19.644 24.0525 19.8947 24.0525 20.2043C24.0525 20.5138 23.8018 20.7645 23.4922 20.7645H21.3773ZM25.6072 20.7645C25.2977 20.7645 25.047 20.5138 25.047 20.2043C25.047 19.8947 25.2977 19.644 25.6072 19.644H27.7221C28.0316 19.644 28.2824 19.8947 28.2824 20.2043C28.2824 20.5138 28.0316 20.7645 27.7221 20.7645H25.6072ZM25.1534 8.5167H28.6605C28.9701 8.5167 29.2208 8.7674 29.2208 9.07692V12.5797C29.2208 12.8892 28.9701 13.1399 28.6605 13.1399H25.1534C24.8439 13.1399 24.5932 12.8892 24.5932 12.5797V9.07692C24.5932 8.7674 24.8439 8.5167 25.1534 8.5167ZM28.1003 9.63714H25.7137V12.0195H28.1003V9.63714ZM13.8366 4.57561L14.4711 3.94117C14.1224 3.50418 13.719 3.10226 13.2834 2.7535L12.5943 3.44259C12.4052 3.63306 12.1125 3.65827 11.8968 3.51822C11.2805 3.12185 10.6082 2.84176 9.89534 2.68769C9.63342 2.63167 9.45273 2.39918 9.45413 2.14009V1.16529C8.89809 1.10366 8.33225 1.10366 7.77481 1.16529V2.14149C7.77481 2.4188 7.57312 2.6485 7.3098 2.69332C6.6459 2.82357 5.90078 3.14989 5.32935 3.51546C5.10386 3.65971 4.81393 3.6219 4.63186 3.43982H4.63046L3.94135 2.75074C3.50578 3.09948 3.10097 3.50425 2.75364 3.93701L3.44414 4.62889C3.64303 4.82777 3.66124 5.1373 3.50017 5.35716C3.30828 5.65828 3.14581 5.97199 3.01275 6.29414C2.87409 6.62887 2.76624 6.97479 2.68921 7.32914C2.63318 7.59104 2.40068 7.77172 2.14159 7.77032H1.16675C1.10512 8.32635 1.10512 8.89356 1.16675 9.44819H2.14159C2.41891 9.44819 2.64862 9.64987 2.69344 9.91318C2.8223 10.5714 3.15282 11.3221 3.5184 11.8922C3.66687 12.1246 3.62345 12.4258 3.42596 12.6064L2.75227 13.2801C3.09962 13.7143 3.50581 14.119 3.94139 14.4678L4.63049 13.7787C4.82938 13.5798 5.13892 13.5616 5.35879 13.7227C5.59409 13.8837 6.04929 14.1078 6.2916 14.2073C6.62355 14.3445 6.97229 14.4538 7.33224 14.5308C7.59415 14.5868 7.77484 14.8193 7.77344 15.0784V16.0546C8.32949 16.1162 8.89532 16.1162 9.45277 16.0546V15.0798C9.45277 14.8025 9.65446 14.5728 9.91778 14.528C10.576 14.3991 11.3268 14.0686 11.8968 13.703C12.1223 13.5588 12.4122 13.5966 12.5943 13.7787V13.7773L13.2848 14.4691C13.7176 14.1218 14.1224 13.717 14.4711 13.2815L13.782 12.5924C13.5831 12.3935 13.5649 12.084 13.726 11.8641C13.9165 11.5644 14.079 11.2521 14.2106 10.9313C14.3479 10.5994 14.4571 10.2507 14.5342 9.89075C14.5902 9.62884 14.8227 9.44816 15.0818 9.44956H16.058C16.1197 8.89353 16.1197 8.32772 16.058 7.77169H15.0818C14.8045 7.77169 14.5748 7.57001 14.5299 7.3067C14.4011 6.64706 14.0607 5.87813 13.7078 5.32633C13.5635 5.10084 13.6013 4.81093 13.7834 4.62886L13.782 4.62746L13.838 4.57144L13.8366 4.57561ZM15.5888 4.40895C15.8101 4.18766 15.8311 3.88935 15.6476 3.64565C15.3619 3.24229 15.0454 2.86693 14.7022 2.52241C14.3507 2.17087 13.9655 1.84735 13.5523 1.55743C13.3198 1.39357 13.0033 1.43278 12.817 1.63866L12.1111 2.34456C11.6237 2.07145 11.1068 1.85716 10.5718 1.70449V0.680676C10.5718 0.396364 10.3603 0.161078 10.0858 0.126049C9.59697 0.0420139 9.10395 0 8.61234 0C8.11234 0 7.61229 0.0434158 7.11648 0.130251C6.84477 0.177869 6.65287 0.414563 6.65287 0.682082V1.7073C6.12063 1.85856 5.59962 2.07423 5.115 2.34453L4.39089 1.62046C4.18641 1.41598 3.86568 1.40337 3.64578 1.57844C3.24241 1.86415 2.86704 2.18068 2.5225 2.5238C2.17515 2.87114 1.85161 3.2577 1.55749 3.67644C1.40062 3.90193 1.43283 4.20307 1.62051 4.39073L1.61911 4.39213L2.34321 5.1176C2.0701 5.605 1.85719 6.12181 1.70456 6.65542H0.680702C0.396379 6.65542 0.161084 6.8669 0.126054 7.14143C0.0420154 7.62883 0 8.12322 0 8.61481C0 9.1148 0.0434174 9.61482 0.130256 10.1106C0.177876 10.3823 0.414579 10.5742 0.682108 10.5742H1.70596C1.85863 11.1092 2.07291 11.6246 2.34605 12.1134L1.62055 12.8389C1.41887 13.0406 1.40486 13.3585 1.57714 13.577C1.86566 13.9859 2.1836 14.3627 2.52394 14.7044C2.70041 14.8809 2.88529 15.0504 3.07719 15.2114V24.7648C3.07719 25.6289 3.7887 26.339 4.65006 26.339H13.9797C13.8172 27.3908 13.46 28.3656 12.8368 29.2157H10.5538C9.14616 29.2157 7.99348 30.3698 7.99348 31.7745V32.7731C7.99348 33.0826 8.24418 33.3333 8.55372 33.3333H27.8554C28.165 33.3333 28.4157 33.0826 28.4157 32.7731V31.7745C28.4157 30.3669 27.2616 29.2157 25.8568 29.2157H23.5738C22.9505 28.3642 22.5934 27.3908 22.4309 26.339H31.7591C32.6261 26.339 33.3333 25.6317 33.3333 24.7648V5.9833C33.3333 5.12058 32.6246 4.40909 31.7591 4.40909L15.5888 4.40895ZM4.19643 15.7324V24.7633C4.19643 25.0126 4.39811 25.2171 4.64882 25.2171H31.7588C32.0067 25.2171 32.2126 25.0112 32.2126 24.7633V5.9833C32.2126 5.7312 32.0081 5.52953 31.7588 5.52953H15.0942L15.366 6.18219H30.9997C31.3092 6.18219 31.5599 6.43288 31.5599 6.74241V22.9076C31.5599 23.2171 31.3092 23.4678 30.9997 23.4678H5.40924C5.09971 23.4678 4.849 23.2171 4.849 22.9076V15.1484L4.38962 15.6078C4.3336 15.6638 4.26777 15.7058 4.19634 15.7338L4.19643 15.7324ZM8.61239 4.91879C6.57171 4.91879 4.91748 6.57285 4.91748 8.61356C4.91748 10.6542 6.5716 12.3083 8.61239 12.3083C10.6531 12.3083 12.3073 10.6543 12.3073 8.61356C12.3073 6.57296 10.6532 4.91879 8.61239 4.91879ZM17.1252 7.30252C17.2765 8.2955 17.2499 9.09942 17.0986 10.0868C17.0622 10.3613 16.8269 10.5728 16.5439 10.5728H15.5187C15.3674 11.105 15.1517 11.626 14.8814 12.1106L15.6055 12.8347C15.7946 13.0238 15.8268 13.3263 15.6672 13.5518C15.3772 13.9663 15.0537 14.3501 14.7021 14.7016C14.366 15.0378 13.9948 15.3501 13.5928 15.6358C13.373 15.8235 13.0424 15.8137 12.8337 15.605L12.1096 14.8795C11.6222 15.1526 11.1054 15.3669 10.5717 15.5182V16.542C10.5717 16.8095 10.3799 17.0462 10.1081 17.0938C9.61231 17.1806 9.11231 17.2241 8.61227 17.2241C8.12065 17.2241 7.62624 17.182 7.13882 17.098C6.8643 17.0616 6.6528 16.8263 6.6528 16.5434V15.5182C6.4231 15.4523 6.19482 15.3753 5.96932 15.2857V22.3457H30.4393V7.30239L17.1252 7.30252ZM23.2992 30.3345H25.8567C26.6508 30.3345 27.2951 30.9816 27.2951 31.7729V32.2113L9.11239 32.2127V31.7743C9.11239 30.9787 9.76088 30.3359 10.5522 30.3359H23.2992L23.2992 30.3345ZM21.2991 26.3375C21.4392 27.3613 21.7389 28.3319 22.2431 29.2142H14.1659C14.6701 28.3319 14.9699 27.3613 15.1099 26.3375H21.2991Z" fill="#7A3DE2"/>
</svg>
